<svg xmlns="http://www.w3.org/2000/svg" width="24" height="25" viewBox="0 0 24 25" fill="none"><g clip-path="url(#clip0_641_3185)"><path d="M17.6129 16.0161C19.0653 14.0342 19.7159 11.5769 19.4343 9.13587C19.1528 6.69486 17.96 4.45016 16.0945 2.85085C14.2291 1.25153 11.8285 0.415556 9.37314 0.510166C6.91777 0.604776 4.58866 1.62299 2.85178 3.36111C1.11491 5.09923 0.0983577 7.42907 0.00550496 9.8845C-0.0873478 12.3399 0.750346 14.7399 2.35099 16.6042C3.95164 18.4685 6.1972 19.6598 8.63841 19.9395C11.0796 20.2193 13.5365 19.567 15.5174 18.1131H15.5159C15.5609 18.1731 15.6089 18.2302 15.6629 18.2857L21.4379 24.0606C21.7191 24.3421 22.1007 24.5003 22.4986 24.5005C22.8965 24.5006 23.2782 24.3427 23.5596 24.0614C23.8411 23.7801 23.9993 23.3986 23.9994 23.0007C23.9996 22.6028 23.8416 22.2211 23.5604 21.9397L17.7854 16.1646C17.7318 16.1104 17.6741 16.0602 17.6129 16.0147V16.0161ZM17.9999 10.2502C17.9999 11.3336 17.7865 12.4064 17.3719 13.4073C16.9573 14.4082 16.3496 15.3177 15.5835 16.0838C14.8174 16.8499 13.908 17.4576 12.907 17.8722C11.9061 18.2868 10.8333 18.5002 9.74988 18.5002C8.66648 18.5002 7.59368 18.2868 6.59274 17.8722C5.59181 17.4576 4.68233 16.8499 3.91625 16.0838C3.15017 15.3177 2.54248 14.4082 2.12788 13.4073C1.71327 12.4064 1.49988 11.3336 1.49988 10.2502C1.49988 8.06211 2.36908 5.9637 3.91625 4.41652C5.46343 2.86935 7.56185 2.00015 9.74988 2.00015C11.9379 2.00015 14.0363 2.86935 15.5835 4.41652C17.1307 5.9637 17.9999 8.06211 17.9999 10.2502Z" fill="white"></path></g><defs><clipPath id="clip0_641_3185"><rect width="24" height="24" fill="white" transform="translate(0 0.5)"></rect></clipPath></defs></svg>